<svg height="511pt" viewBox="0 -16 511.99953 511" width="511pt" xmlns="http://www.w3.org/2000/svg"><path d="m246.449219 349.351562c2.769531 2.285157 6.167969 3.429688 9.550781 3.429688s6.78125-1.144531 9.550781-3.429688c41.585938-34.351562 65.449219-84.960937 65.449219-138.851562 0-57.90625-26.308594-118.519531-65.449219-150.851562-5.535156-4.570313-13.5625-4.570313-19.101562 0-39.140625 32.332031-65.449219 92.945312-65.449219 150.851562 0 53.890625 23.863281 104.5 65.449219 138.851562zm0 0"/><path d="m224.496094 453.519531c6.6875 7.757813 13.867187 15.148438 21.953125 21.824219 5.511719 4.578125 13.566406 4.597656 19.101562 0 8.082031-6.675781 15.265625-14.070312 21.953125-21.824219-11.203125-7.597656-21.863281-16.316406-31.503906-27.015625-9.636719 10.699219-20.292969 19.417969-31.503906 27.015625zm0 0"/><path d="m194.632812 338.648438c-28.078124-36.378907-43.632812-81.1875-43.632812-128.148438 0-28.136719 5.785156-56.78125 15.621094-83.46875-17-7.675781-35.035156-13.035156-54-15.027344-7.179688-.851562-13.828125 3.660156-15.921875 10.546875-15.675781 51.621094-7.589844 106.976563 22.191406 151.890625 18.917969 28.527344 44.992187 50.457032 75.742187 64.207032zm0 0"/><path d="m317.046875 339.109375c30.578125-13.726563 56.957031-35.863281 76.0625-64.667969 29.78125-44.914062 37.867187-100.269531 22.191406-151.890625-2.09375-6.886719-8.804687-11.398437-15.921875-10.546875-18.964844 1.988282-37 7.347656-54 15.023438 9.835938 26.691406 15.621094 55.335937 15.621094 83.472656 0 47.15625-15.65625 92.152344-43.953125 128.609375zm0 0"/><path d="m244.441406 392.957031c-49.917968 17.921875-104.910156 16.488281-154.101562-4.917969-15.398438-6.675781-29.65625-15.179687-42.765625-25.046874-5.601563 7.765624-10.726563 15.71875-14.699219 23.875-2.503906 5.140624-1.160156 12.507812 2.371094 17.019531 9.464844 12.144531 61.90625 58.171875 127.542968 44.328125 39.21875-8.269532 64.960938-32.570313 81.652344-55.257813zm0 0"/><path d="m464.425781 362.992188c-13.113281 9.871093-27.378906 18.382812-42.78125 25.0625-48.144531 20.90625-101.296875 24-154.035156 4.984374 16.707031 22.652344 42.441406 46.914063 81.597656 55.175782 48.835938 10.277344 104.339844-14.570313 127.542969-44.324219 3.53125-4.515625 4.878906-11.882813 2.359375-17.039063-3.96875-8.144531-9.082031-16.097656-14.683594-23.859374zm0 0"/><path d="m102.292969 360.527344c23.101562 10.035156 47.417969 15.015625 71.675781 15.015625 8.875 0 17.714844-.90625 26.507812-2.238281-43.21875-14.820313-80.671874-43.203126-106.589843-82.28125-16.402344-24.726563-26.949219-52.210938-31.816407-80.632813-18.453124 2.953125-36.878906 8.644531-53.878906 17.308594-6.402344 3.25-9.59375 10.605469-7.601562 17.519531 14.953125 51.839844 52.28125 93.863281 101.703125 115.308594zm0 0"/><path d="m503.808594 227.695312c-16.992188-8.65625-35.425782-14.332031-53.882813-17.273437-4.871093 28.410156-15.417969 55.882813-31.8125 80.601563-25.984375 39.167968-63.546875 67.613281-106.890625 82.40625 32.917969 5.023437 66.835938.835937 98.484375-12.902344 49.421875-21.445313 86.746094-63.46875 101.703125-115.3125 1.992188-6.910156-1.199218-14.265625-7.601562-17.519532zm0 0"/><path d="m211 45.5c0 8.285156-6.714844 15-15 15s-15-6.714844-15-15 6.714844-15 15-15 15 6.714844 15 15zm0 0"/><path d="m331 45.5c0 8.285156-6.714844 15-15 15s-15-6.714844-15-15 6.714844-15 15-15 15 6.714844 15 15zm0 0"/><path d="m271 15.5c0 8.285156-6.714844 15-15 15s-15-6.714844-15-15 6.714844-15 15-15 15 6.714844 15 15zm0 0"/></svg>